<svg xmlns="http://www.w3.org/2000/svg" width="20" height="16" viewBox="0 0 20 16" fill="none">
  <path fill-rule="evenodd" clip-rule="evenodd" d="M6.42857 0.142883C5.72096 0.142883 5.16776 0.573098 4.8241 1.08858C4.47711 1.60905 4.28571 2.28694 4.28571 3.00003C4.28571 3.71311 4.47711 4.391 4.8241 4.91147C5.16776 5.42695 5.72096 5.85717 6.42857 5.85717C7.13619 5.85717 7.68939 5.42695 8.03304 4.91147C8.38003 4.391 8.57143 3.71311 8.57143 3.00003C8.57143 2.28694 8.38003 1.60905 8.03304 1.08858C7.68939 0.573098 7.13619 0.142883 6.42857 0.142883ZM13.5714 0.142883C12.8638 0.142883 12.3106 0.573098 11.967 1.08858C11.62 1.60905 11.4286 2.28694 11.4286 3.00003C11.4286 3.71311 11.62 4.391 11.967 4.91147C12.3106 5.42695 12.8638 5.85717 13.5714 5.85717C14.279 5.85717 14.8323 5.42695 15.1759 4.91147C15.5229 4.391 15.7143 3.71311 15.7143 3.00003C15.7143 2.28694 15.5229 1.60905 15.1759 1.08858C14.8323 0.573098 14.279 0.142883 13.5714 0.142883ZM2.14286 6.57145C1.43524 6.57145 0.882039 7.00167 0.538383 7.51716C0.191399 8.03763 0 8.71551 0 9.4286C0 10.1417 0.191399 10.8196 0.538383 11.34C0.882039 11.8555 1.43524 12.2857 2.14286 12.2857C2.85047 12.2857 3.40367 11.8555 3.74733 11.34C4.09431 10.8196 4.28571 10.1417 4.28571 9.4286C4.28571 8.71551 4.09431 8.03763 3.74733 7.51716C3.40367 7.00167 2.85047 6.57145 2.14286 6.57145ZM10 6.57145C8.2845 6.57145 7.01606 7.49103 6.20377 8.63227C5.40271 9.75777 5 11.1528 5 12.2857C5 13.6059 5.79326 14.5236 6.7655 15.0749C7.72334 15.6182 8.92369 15.8572 10 15.8572C11.0763 15.8572 12.2767 15.6182 13.2345 15.0749C14.2067 14.5236 15 13.6059 15 12.2857C15 11.1528 14.5973 9.75777 13.7962 8.63227C12.9839 7.49103 11.7155 6.57145 10 6.57145ZM17.8571 6.57145C17.1496 6.57145 16.5963 7.00167 16.2527 7.51716C15.9057 8.03763 15.7143 8.71551 15.7143 9.4286C15.7143 10.1417 15.9057 10.8196 16.2527 11.34C16.5963 11.8555 17.1496 12.2857 17.8571 12.2857C18.5647 12.2857 19.118 11.8555 19.4616 11.34C19.8086 10.8196 20 10.1417 20 9.4286C20 8.71551 19.8086 8.03763 19.4616 7.51716C19.118 7.00167 18.5647 6.57145 17.8571 6.57145Z" fill="#9282FA"/>
</svg>