<svg xmlns="http://www.w3.org/2000/svg" width="20" height="18" viewBox="0 0 20 18" fill="none">
  <path d="M9.03044 10.0319C5.98324 7.00201 7.08666 5.88592 7.09355 5.87903L2.91553 10.057C3.60467 11.0959 4.50258 12.2107 5.67084 13.3725C6.84987 14.5448 8.00927 15.4149 9.10731 16.0576L13.2071 11.9578C13.2071 11.9578 12.0872 13.0714 9.03044 10.0319Z" fill="#9282FA" fill-opacity="0.4"/>
  <path fill-rule="evenodd" clip-rule="evenodd" d="M13.2074 11.9575L13.6786 11.4891C14.3299 10.8414 15.3451 10.7084 16.1784 11.1614L18.1547 12.2358C19.4239 12.9256 19.7036 14.6165 18.7117 15.6029L17.2422 17.0639C16.8685 17.4355 16.4049 17.707 15.8717 17.7567C14.6385 17.8717 12.1012 17.8097 9.10764 16.0573L13.2074 11.9575ZM7.09388 5.87863L7.39051 5.58365C8.12146 4.8569 8.19034 3.69015 7.55265 2.83831L6.24822 1.09593C5.45901 0.0416704 3.93386 -0.0975837 3.0293 0.801908L1.40559 2.41635C0.957036 2.8623 0.65644 3.44045 0.692936 4.08186C0.759831 5.25994 1.16144 7.41201 2.91578 10.0567L7.09388 5.87863Z" fill="#9282FA"/>
</svg>